<svg width="420" height="780" viewBox="0 0 420 780" fill="none" xmlns="http://www.w3.org/2000/svg">
  <rect width="420" height="780" rx="44" fill="#060A16" stroke="#334155" stroke-width="4"/>
  <rect x="130" y="18" width="160" height="20" rx="10" fill="#111827"/>
  <text x="26" y="74" fill="#E5E7EB" font-family="Georgia, serif" font-size="16" font-weight="700">Quick Revise proposal</text>
  <rect x="24" y="96" width="372" height="62" rx="18" fill="#0F172A" stroke="#243244"/>
  <text x="42" y="123" fill="#94A3B8" font-family="Arial, sans-serif" font-size="12" font-weight="700">SESSION</text>
  <text x="42" y="145" fill="#F8FAFC" font-family="Georgia, serif" font-size="20" font-weight="700">10-card weak areas run</text>
  <text x="306" y="145" fill="#60A5FA" font-family="Arial, sans-serif" font-size="14" font-weight="700">3 / 10</text>
  <rect x="24" y="176" width="372" height="374" rx="26" fill="#131B31" stroke="#27577A"/>
  <text x="42" y="212" fill="#7DD3FC" font-family="Arial, sans-serif" font-size="12" font-weight="700">KEY PEOPLE</text>
  <text x="42" y="248" fill="#F8FAFC" font-family="Georgia, serif" font-size="30" font-weight="700">James Cook</text>
  <text x="42" y="286" fill="#94A3B8" font-family="Arial, sans-serif" font-size="14">Explorer 1728 to 1779</text>
  <rect x="42" y="314" width="336" height="78" rx="18" fill="#102234" stroke="#1E88C6"/>
  <text x="60" y="340" fill="#38BDF8" font-family="Arial, sans-serif" font-size="11" font-weight="700">WHY IT MATTERS</text>
  <text x="60" y="366" fill="#E2E8F0" font-family="Arial, sans-serif" font-size="15">Mapped the coast of Australia and made</text>
  <text x="60" y="387" fill="#E2E8F0" font-family="Arial, sans-serif" font-size="15">three Pacific voyages.</text>
  <rect x="42" y="408" width="336" height="70" rx="18" fill="#123126" stroke="#1F7A62"/>
  <text x="60" y="434" fill="#6EE7B7" font-family="Arial, sans-serif" font-size="11" font-weight="700">MEMORY CLUE</text>
  <text x="60" y="460" fill="#E2E8F0" font-family="Arial, sans-serif" font-size="15">Cook = Pacific voyages = Australia map.</text>
  <rect x="42" y="496" width="100" height="32" rx="16" fill="#1E293B"/>
  <text x="71" y="517" fill="#E2E8F0" font-family="Arial, sans-serif" font-size="13" font-weight="700">Save</text>
  <rect x="154" y="496" width="100" height="32" rx="16" fill="#1E293B"/>
  <text x="182" y="517" fill="#E2E8F0" font-family="Arial, sans-serif" font-size="13" font-weight="700">Prev</text>
  <rect x="266" y="496" width="112" height="32" rx="16" fill="#1D4ED8"/>
  <text x="301" y="517" fill="#EFF6FF" font-family="Arial, sans-serif" font-size="13" font-weight="700">Skip</text>
  <text x="24" y="590" fill="#94A3B8" font-family="Arial, sans-serif" font-size="12" font-weight="700">RATE THIS CARD</text>
  <rect x="24" y="606" width="116" height="62" rx="20" fill="#3B250A" stroke="#F59E0B"/>
  <text x="66" y="644" fill="#FCD34D" font-family="Arial, sans-serif" font-size="18" font-weight="700">Hard</text>
  <rect x="152" y="606" width="116" height="62" rx="20" fill="#102234" stroke="#38BDF8"/>
  <text x="193" y="644" fill="#7DD3FC" font-family="Arial, sans-serif" font-size="18" font-weight="700">Okay</text>
  <rect x="280" y="606" width="116" height="62" rx="20" fill="#123126" stroke="#34D399"/>
  <text x="324" y="644" fill="#86EFAC" font-family="Arial, sans-serif" font-size="18" font-weight="700">Easy</text>
  <text x="24" y="702" fill="#94A3B8" font-family="Arial, sans-serif" font-size="13">Swipe left = Hard, swipe right = Easy, tap = Okay</text>
  <rect x="24" y="724" width="372" height="32" rx="16" fill="#0F172A" stroke="#243244"/>
  <rect x="24" y="724" width="112" height="32" rx="16" fill="#14B8A6"/>
  <text x="176" y="745" fill="#B8C4DA" font-family="Arial, sans-serif" font-size="13">Deck adapts around hard cards automatically</text>
</svg>
